<svg xmlns="http://www.w3.org/2000/svg" viewBox="0 0 100 100">
  <circle cx="50" cy="50" r="45" fill="#e1f5fe" stroke="#8bc4a2" stroke-width="2"/>
  <path d="M25,50 C25,37 37,25 50,25 C63,25 75,37 75,50 C75,63 63,75 50,75 C37,75 25,63 25,50 Z" fill="none" stroke="#8bc4a2" stroke-width="2" stroke-linecap="round"/>
  <path d="M40,40 Q50,30 60,40" fill="none" stroke="#8bc4a2" stroke-width="2" stroke-linecap="round"/>
  <path d="M40,60 Q50,70 60,60" fill="none" stroke="#8bc4a2" stroke-width="2" stroke-linecap="round"/>
  <path d="M50,45 L50,55" fill="none" stroke="#8bc4a2" stroke-width="2" stroke-linecap="round"/>
  <path d="M30,30 L35,35" fill="none" stroke="#8bc4a2" stroke-width="2" stroke-linecap="round"/>
  <path d="M65,35 L70,30" fill="none" stroke="#8bc4a2" stroke-width="2" stroke-linecap="round"/>
  <path d="M30,70 L35,65" fill="none" stroke="#8bc4a2" stroke-width="2" stroke-linecap="round"/>
  <path d="M65,65 L70,70" fill="none" stroke="#8bc4a2" stroke-width="2" stroke-linecap="round"/>
</svg>
